<?xml version="1.0" encoding="UTF-8"?>
<svg width="1200" height="800" viewBox="0 0 1200 800" xmlns="http://www.w3.org/2000/svg">
  <!-- Background -->
  <rect width="1200" height="800" fill="#f8fafc"/>
  
  <!-- Header -->
  <rect x="0" y="0" width="1200" height="70" fill="white" stroke="#e2e8f0" stroke-width="1"/>
  
  <!-- Navigation tabs -->
  <rect x="40" y="15" width="90" height="40" fill="#e2e8f0" rx="6"/>
  <text x="85" y="40" text-anchor="middle" font-family="Arial" font-size="14" font-weight="600" fill="#374151">Overview</text>
  
  <rect x="140" y="15" width="100" height="40" fill="white" rx="6" stroke="#e2e8f0"/>
  <text x="190" y="40" text-anchor="middle" font-family="Arial" font-size="14" fill="#6b7280">Compliance</text>
  
  <rect x="250" y="15" width="100" height="40" fill="white" rx="6" stroke="#e2e8f0"/>
  <text x="300" y="40" text-anchor="middle" font-family="Arial" font-size="14" fill="#6b7280">Documents</text>
  
  <rect x="360" y="15" width="80" height="40" fill="white" rx="6" stroke="#e2e8f0"/>
  <text x="400" y="40" text-anchor="middle" font-family="Arial" font-size="14" fill="#6b7280">Upload</text>
  
  <!-- Top stats cards -->
  <!-- Compliance Score -->
  <rect x="40" y="90" width="270" height="100" fill="white" rx="10" stroke="#e2e8f0" stroke-width="1"/>
  <circle cx="70" cy="125" r="10" fill="#3b82f6"/>
  <text x="95" y="135" font-family="Arial" font-size="32" font-weight="bold" fill="#1f2937">87%</text>
  <text x="95" y="155" font-family="Arial" font-size="14" fill="#6b7280">Compliance Score</text>
  
  <!-- Inspection Readiness -->
  <rect x="330" y="90" width="270" height="100" fill="white" rx="10" stroke="#e2e8f0" stroke-width="1"/>
  <rect x="360" y="120" width="20" height="20" fill="#10b981" rx="3"/>
  <text x="390" y="135" font-family="Arial" font-size="20" font-weight="bold" fill="#1f2937">Good</text>
  <text x="390" y="155" font-family="Arial" font-size="14" fill="#6b7280">Inspection Readiness</text>
  
  <!-- Days Since Last Review -->
  <rect x="620" y="90" width="270" height="100" fill="white" rx="10" stroke="#e2e8f0" stroke-width="1"/>
  <circle cx="650" cy="125" r="10" fill="#f59e0b"/>
  <text x="675" y="135" font-family="Arial" font-size="32" font-weight="bold" fill="#1f2937">3</text>
  <text x="675" y="155" font-family="Arial" font-size="14" fill="#6b7280">Days Since Last Review</text>
  
  <!-- New Documents -->
  <rect x="910" y="90" width="250" height="100" fill="white" rx="10" stroke="#e2e8f0" stroke-width="1"/>
  <rect x="940" y="120" width="20" height="20" fill="#8b5cf6" rx="3"/>
  <text x="970" y="135" font-family="Arial" font-size="32" font-weight="bold" fill="#1f2937">5</text>
  <text x="970" y="155" font-family="Arial" font-size="14" fill="#6b7280">New Documents</text>
  
  <!-- Main content area -->
  <!-- Overall Compliance Chart -->
  <rect x="40" y="210" width="360" height="220" fill="white" rx="10" stroke="#e2e8f0" stroke-width="1"/>
  <text x="60" y="235" font-family="Arial" font-size="18" font-weight="bold" fill="#1f2937">Overall Compliance</text>
  
  <!-- Progress circle -->
  <circle cx="220" cy="320" r="60" fill="none" stroke="#e5e7eb" stroke-width="10"/>
  <circle cx="220" cy="320" r="60" fill="none" stroke="#5b6bcf" stroke-width="10" 
          stroke-dasharray="330 377" stroke-dashoffset="0" transform="rotate(-90 220 320)"/>
  <text x="220" y="330" text-anchor="middle" font-family="Arial" font-size="24" font-weight="bold" fill="#1f2937">87%</text>
  <text x="220" y="395" text-anchor="middle" font-family="Arial" font-size="12" fill="#6b7280">Compliant of all standards</text>
  
  <!-- Days to Next Inspection -->
  <rect x="420" y="210" width="360" height="220" fill="white" rx="10" stroke="#e2e8f0" stroke-width="1"/>
  <rect x="440" y="225" width="20" height="20" fill="#3b82f6" rx="3"/>
  <text x="470" y="240" font-family="Arial" font-size="18" font-weight="bold" fill="#1f2937">Days to Next Inspection</text>
  <text x="600" y="340" text-anchor="middle" font-family="Arial" font-size="64" font-weight="bold" fill="#3b82f6">12</text>
  <text x="600" y="365" text-anchor="middle" font-family="Arial" font-size="14" fill="#6b7280">days remaining</text>
  
  <!-- Monthly Activity -->
  <rect x="800" y="210" width="360" height="220" fill="white" rx="10" stroke="#e2e8f0" stroke-width="1"/>
  <text x="820" y="235" font-family="Arial" font-size="18" font-weight="bold" fill="#1f2937">Monthly Activity</text>
  
  <!-- Bar chart -->
  <rect x="830" y="370" width="18" height="35" fill="#1f2937"/>
  <rect x="855" y="360" width="18" height="45" fill="#1f2937"/>
  <rect x="880" y="350" width="18" height="55" fill="#1f2937"/>
  <rect x="905" y="340" width="18" height="65" fill="#1f2937"/>
  <rect x="930" y="330" width="18" height="75" fill="#1f2937"/>
  <rect x="955" y="320" width="18" height="85" fill="#1f2937"/>
  <rect x="980" y="300" width="18" height="105" fill="#1f2937"/>
  <rect x="1005" y="290" width="18" height="115" fill="#1f2937"/>
  <rect x="1030" y="280" width="18" height="125" fill="#1f2937"/>
  <rect x="1055" y="270" width="18" height="135" fill="#1f2937"/>
  <rect x="1080" y="260" width="18" height="145" fill="#1f2937"/>
  <rect x="1105" y="250" width="18" height="155" fill="#1f2937"/>
  
  <text x="839" y="420" font-family="Arial" font-size="10" fill="#6b7280">Feb</text>
  <text x="864" y="420" font-family="Arial" font-size="10" fill="#6b7280">Apr</text>
  <text x="889" y="420" font-family="Arial" font-size="10" fill="#6b7280">Jun</text>
  <text x="914" y="420" font-family="Arial" font-size="10" fill="#6b7280">Aug</text>
  <text x="939" y="420" font-family="Arial" font-size="10" fill="#6b7280">Oct</text>
  <text x="964" y="420" font-family="Arial" font-size="10" fill="#6b7280">Dec</text>
  
  <!-- Bottom section -->
  <!-- Weakest Topics -->
  <rect x="40" y="450" width="360" height="180" fill="white" rx="10" stroke="#e2e8f0" stroke-width="1"/>
  <text x="60" y="475" font-family="Arial" font-size="16" font-weight="bold" fill="#1f2937">⚠️ Weakest Topics</text>
  
  <text x="60" y="505" font-family="Arial" font-size="14" fill="#1f2937">Food Safety</text>
  <rect x="60" y="510" width="200" height="5" fill="#f59e0b" rx="2"/>
  <text x="280" y="505" font-family="Arial" font-size="12" fill="#6b7280">74% Correct</text>
  
  <text x="60" y="535" font-family="Arial" font-size="14" fill="#1f2937">Compliance Basics</text>
  <rect x="60" y="540" width="130" height="5" fill="#f59e0b" rx="2"/>
  <text x="280" y="535" font-family="Arial" font-size="12" fill="#6b7280">52% Correct</text>
  
  <text x="60" y="565" font-family="Arial" font-size="14" fill="#1f2937">Company Networking</text>
  <rect x="60" y="570" width="80" height="5" fill="#f59e0b" rx="2"/>
  <text x="280" y="565" font-family="Arial" font-size="12" fill="#6b7280">36% Correct</text>
  
  <!-- Strongest Topics -->
  <rect x="420" y="450" width="360" height="180" fill="white" rx="10" stroke="#e2e8f0" stroke-width="1"/>
  <text x="440" y="475" font-family="Arial" font-size="16" font-weight="bold" fill="#1f2937">✅ Strongest Topics</text>
  
  <text x="440" y="505" font-family="Arial" font-size="14" fill="#1f2937">Covid Protocols</text>
  <rect x="440" y="510" width="250" height="5" fill="#10b981" rx="2"/>
  <text x="700" y="505" font-family="Arial" font-size="12" fill="#6b7280">95% Correct</text>
  
  <text x="440" y="535" font-family="Arial" font-size="14" fill="#1f2937">Cyber Security Basics</text>
  <rect x="440" y="540" width="230" height="5" fill="#10b981" rx="2"/>
  <text x="700" y="535" font-family="Arial" font-size="12" fill="#6b7280">92% Correct</text>
  
  <text x="440" y="565" font-family="Arial" font-size="14" fill="#1f2937">Social Media Policies</text>
  <rect x="440" y="570" width="210" height="5" fill="#10b981" rx="2"/>
  <text x="700" y="565" font-family="Arial" font-size="12" fill="#6b7280">89% Correct</text>
  
  <!-- Risk Level Distribution -->
  <rect x="800" y="450" width="360" height="180" fill="white" rx="10" stroke="#e2e8f0" stroke-width="1"/>
  <text x="820" y="475" font-family="Arial" font-size="16" font-weight="bold" fill="#1f2937">Risk Level Distribution</text>
  <text x="820" y="495" font-family="Arial" font-size="12" fill="#6b7280">Breakdown of identified compliance gaps.</text>
  
  <!-- Donut chart -->
  <circle cx="980" cy="550" r="45" fill="none" stroke="#10b981" stroke-width="25" 
          stroke-dasharray="220 283" stroke-dashoffset="0" transform="rotate(-90 980 550)"/>
  <circle cx="980" cy="550" r="45" fill="none" stroke="#f59e0b" stroke-width="25" 
          stroke-dasharray="57 446" stroke-dashoffset="-220" transform="rotate(-90 980 550)"/>
  <circle cx="980" cy="550" r="45" fill="none" stroke="#ef4444" stroke-width="25" 
          stroke-dasharray="14 489" stroke-dashoffset="-277" transform="rotate(-90 980 550)"/>
  
  <!-- Legend -->
  <rect x="830" y="600" width="10" height="10" fill="#ef4444"/>
  <text x="848" y="609" font-family="Arial" font-size="12" fill="#6b7280">Critical</text>
  <rect x="900" y="600" width="10" height="10" fill="#f59e0b"/>
  <text x="918" y="609" font-family="Arial" font-size="12" fill="#6b7280">High</text>
  <rect x="960" y="600" width="10" height="10" fill="#f59e0b"/>
  <text x="978" y="609" font-family="Arial" font-size="12" fill="#6b7280">Medium</text>
  <rect x="1020" y="600" width="10" height="10" fill="#10b981"/>
  <text x="1038" y="609" font-family="Arial" font-size="12" fill="#6b7280">Low</text>
</svg>
