<?xml version="1.0" encoding="UTF-8"?>
<svg width="800" height="600" viewBox="0 0 800 600" xmlns="http://www.w3.org/2000/svg">
  <!-- Background -->
  <rect width="800" height="600" fill="#f8fafc"/>
  
  <!-- Header -->
  <rect x="0" y="0" width="800" height="60" fill="white" stroke="#e2e8f0" stroke-width="1"/>
  
  <!-- Navigation tabs -->
  <rect x="40" y="15" width="80" height="30" fill="#e2e8f0" rx="4"/>
  <text x="80" y="35" text-anchor="middle" font-family="Arial" font-size="12" fill="#374151">Overview</text>
  
  <rect x="130" y="15" width="90" height="30" fill="white" rx="4" stroke="#e2e8f0"/>
  <text x="175" y="35" text-anchor="middle" font-family="Arial" font-size="12" fill="#6b7280">Compliance</text>
  
  <rect x="230" y="15" width="90" height="30" fill="white" rx="4" stroke="#e2e8f0"/>
  <text x="275" y="35" text-anchor="middle" font-family="Arial" font-size="12" fill="#6b7280">Documents</text>
  
  <rect x="330" y="15" width="70" height="30" fill="white" rx="4" stroke="#e2e8f0"/>
  <text x="365" y="35" text-anchor="middle" font-family="Arial" font-size="12" fill="#6b7280">Upload</text>
  
  <!-- Top stats cards -->
  <rect x="40" y="80" width="160" height="80" fill="white" rx="8" stroke="#e2e8f0"/>
  <circle cx="60" cy="105" r="8" fill="#3b82f6"/>
  <text x="80" y="110" font-family="Arial" font-size="24" font-weight="bold" fill="#1f2937">87%</text>
  <text x="80" y="130" font-family="Arial" font-size="12" fill="#6b7280">Compliance Score</text>
  
  <rect x="220" y="80" width="160" height="80" fill="white" rx="8" stroke="#e2e8f0"/>
  <rect x="240" y="100" width="16" height="16" fill="#10b981" rx="2"/>
  <text x="265" y="110" font-family="Arial" font-size="18" font-weight="bold" fill="#1f2937">Good</text>
  <text x="265" y="130" font-family="Arial" font-size="12" fill="#6b7280">Inspection Readiness</text>
  
  <rect x="400" y="80" width="160" height="80" fill="white" rx="8" stroke="#e2e8f0"/>
  <circle cx="420" cy="105" r="8" fill="#f59e0b"/>
  <text x="440" y="110" font-family="Arial" font-size="24" font-weight="bold" fill="#1f2937">3</text>
  <text x="440" y="130" font-family="Arial" font-size="12" fill="#6b7280">Days Since Last Review</text>
  
  <rect x="580" y="80" width="160" height="80" fill="white" rx="8" stroke="#e2e8f0"/>
  <rect x="600" y="100" width="16" height="16" fill="#8b5cf6" rx="2"/>
  <text x="625" y="110" font-family="Arial" font-size="24" font-weight="bold" fill="#1f2937">5</text>
  <text x="625" y="130" font-family="Arial" font-size="12" fill="#6b7280">New Documents</text>
  
  <!-- Main content area -->
  <!-- Overall Compliance Chart -->
  <rect x="40" y="190" width="240" height="180" fill="white" rx="8" stroke="#e2e8f0"/>
  <text x="60" y="215" font-family="Arial" font-size="16" font-weight="bold" fill="#1f2937">Overall Compliance</text>
  <circle cx="160" cy="280" r="50" fill="none" stroke="#e5e7eb" stroke-width="8"/>
  <circle cx="160" cy="280" r="50" fill="none" stroke="#3b82f6" stroke-width="8" 
          stroke-dasharray="275 315" stroke-dashoffset="0" transform="rotate(-90 160 280)"/>
  <text x="160" y="285" text-anchor="middle" font-family="Arial" font-size="20" font-weight="bold" fill="#1f2937">87%</text>
  <text x="160" y="345" text-anchor="middle" font-family="Arial" font-size="12" fill="#6b7280">Compliant of all standards</text>
  
  <!-- Days to Next Inspection -->
  <rect x="300" y="190" width="240" height="180" fill="white" rx="8" stroke="#e2e8f0"/>
  <text x="320" y="215" font-family="Arial" font-size="16" font-weight="bold" fill="#1f2937">Days to Next Inspection</text>
  <text x="420" y="270" text-anchor="middle" font-family="Arial" font-size="48" font-weight="bold" fill="#3b82f6">12</text>
  <text x="420" y="295" text-anchor="middle" font-family="Arial" font-size="12" fill="#6b7280">days remaining</text>
  
  <!-- Monthly Activity -->
  <rect x="560" y="190" width="180" height="180" fill="white" rx="8" stroke="#e2e8f0"/>
  <text x="580" y="215" font-family="Arial" font-size="16" font-weight="bold" fill="#1f2937">Monthly Activity</text>
  
  <!-- Bar chart -->
  <rect x="580" y="320" width="15" height="30" fill="#1f2937"/>
  <rect x="600" y="310" width="15" height="40" fill="#1f2937"/>
  <rect x="620" y="300" width="15" height="50" fill="#1f2937"/>
  <rect x="640" y="290" width="15" height="60" fill="#1f2937"/>
  <rect x="660" y="280" width="15" height="70" fill="#1f2937"/>
  <rect x="680" y="270" width="15" height="80" fill="#1f2937"/>
  <rect x="700" y="250" width="15" height="100" fill="#1f2937"/>
  
  <text x="587" y="365" font-family="Arial" font-size="10" fill="#6b7280">Feb</text>
  <text x="607" y="365" font-family="Arial" font-size="10" fill="#6b7280">Apr</text>
  <text x="627" y="365" font-family="Arial" font-size="10" fill="#6b7280">Jun</text>
  <text x="647" y="365" font-family="Arial" font-size="10" fill="#6b7280">Aug</text>
  <text x="667" y="365" font-family="Arial" font-size="10" fill="#6b7280">Oct</text>
  <text x="687" y="365" font-family="Arial" font-size="10" fill="#6b7280">Dec</text>
  
  <!-- Bottom section -->
  <!-- Weakest Topics -->
  <rect x="40" y="390" width="240" height="150" fill="white" rx="8" stroke="#e2e8f0"/>
  <text x="60" y="415" font-family="Arial" font-size="16" font-weight="bold" fill="#1f2937">⚠️ Weakest Topics</text>
  
  <text x="60" y="440" font-family="Arial" font-size="12" fill="#1f2937">Food Safety</text>
  <rect x="60" y="445" width="120" height="4" fill="#f59e0b" rx="2"/>
  <text x="190" y="440" font-family="Arial" font-size="12" fill="#6b7280">74% Correct</text>
  
  <text x="60" y="465" font-family="Arial" font-size="12" fill="#1f2937">Compliance Basics Procedures</text>
  <rect x="60" y="470" width="80" height="4" fill="#f59e0b" rx="2"/>
  <text x="190" y="465" font-family="Arial" font-size="12" fill="#6b7280">52% Correct</text>
  
  <text x="60" y="490" font-family="Arial" font-size="12" fill="#1f2937">Company Networking</text>
  <rect x="60" y="495" width="50" height="4" fill="#f59e0b" rx="2"/>
  <text x="190" y="490" font-family="Arial" font-size="12" fill="#6b7280">36% Correct</text>
  
  <!-- Strongest Topics -->
  <rect x="300" y="390" width="240" height="150" fill="white" rx="8" stroke="#e2e8f0"/>
  <text x="320" y="415" font-family="Arial" font-size="16" font-weight="bold" fill="#1f2937">✅ Strongest Topics</text>
  
  <text x="320" y="440" font-family="Arial" font-size="12" fill="#1f2937">Covid Protocols</text>
  <rect x="320" y="445" width="180" height="4" fill="#10b981" rx="2"/>
  <text x="510" y="440" font-family="Arial" font-size="12" fill="#6b7280">95% Correct</text>
  
  <text x="320" y="465" font-family="Arial" font-size="12" fill="#1f2937">Cyber Security Basics</text>
  <rect x="320" y="470" width="170" height="4" fill="#10b981" rx="2"/>
  <text x="510" y="465" font-family="Arial" font-size="12" fill="#6b7280">92% Correct</text>
  
  <text x="320" y="490" font-family="Arial" font-size="12" fill="#1f2937">Social Media Policies</text>
  <rect x="320" y="495" width="160" height="4" fill="#10b981" rx="2"/>
  <text x="510" y="490" font-family="Arial" font-size="12" fill="#6b7280">89% Correct</text>
  
  <!-- Risk Level Distribution -->
  <rect x="560" y="390" width="180" height="150" fill="white" rx="8" stroke="#e2e8f0"/>
  <text x="580" y="415" font-family="Arial" font-size="16" font-weight="bold" fill="#1f2937">Risk Level Distribution</text>
  <text x="580" y="435" font-family="Arial" font-size="12" fill="#6b7280">Breakdown of identified compliance gaps.</text>
  
  <!-- Donut chart -->
  <circle cx="650" cy="480" r="35" fill="none" stroke="#10b981" stroke-width="20" 
          stroke-dasharray="175 220" stroke-dashoffset="0" transform="rotate(-90 650 480)"/>
  <circle cx="650" cy="480" r="35" fill="none" stroke="#f59e0b" stroke-width="20" 
          stroke-dasharray="44 351" stroke-dashoffset="-175" transform="rotate(-90 650 480)"/>
  <circle cx="650" cy="480" r="35" fill="none" stroke="#ef4444" stroke-width="20" 
          stroke-dasharray="22 373" stroke-dashoffset="-219" transform="rotate(-90 650 480)"/>
  
  <!-- Legend -->
  <rect x="565" y="520" width="8" height="8" fill="#ef4444"/>
  <text x="580" y="527" font-family="Arial" font-size="10" fill="#6b7280">Critical</text>
  <rect x="615" y="520" width="8" height="8" fill="#f59e0b"/>
  <text x="630" y="527" font-family="Arial" font-size="10" fill="#6b7280">Medium</text>
  <rect x="670" y="520" width="8" height="8" fill="#10b981"/>
  <text x="685" y="527" font-family="Arial" font-size="10" fill="#6b7280">Low</text>
</svg>
