<?xml version="1.0" encoding="UTF-8"?>
<svg width="80" height="80" viewBox="0 0 80 80" xmlns="http://www.w3.org/2000/svg">
  <!-- Background circle -->
  <circle cx="40" cy="40" r="40" fill="#f3f4f6"/>
  
  <!-- Professional man in suit -->
  <circle cx="40" cy="40" r="38" fill="#f7fafc" stroke="#e5e7eb" stroke-width="2"/>
  
  <!-- Hair -->
  <ellipse cx="40" cy="30" rx="20" ry="12" fill="#1a202c"/>
  <ellipse cx="40" cy="28" rx="18" ry="10" fill="#2d3748"/>
  
  <!-- Face -->
  <ellipse cx="40" cy="44" rx="16" ry="18" fill="#fed7d7"/>
  
  <!-- Eyes -->
  <circle cx="36" cy="41" r="2" fill="#2d3748"/>
  <circle cx="44" cy="41" r="2" fill="#2d3748"/>
  <circle cx="36.5" cy="40.5" r="0.5" fill="white"/>
  <circle cx="44.5" cy="40.5" r="0.5" fill="white"/>
  
  <!-- Eyebrows -->
  <path d="M 33 37 Q 36 36 39 37" stroke="#1a202c" stroke-width="2" fill="none"/>
  <path d="M 41 37 Q 44 36 47 37" stroke="#1a202c" stroke-width="2" fill="none"/>
  
  <!-- Nose -->
  <ellipse cx="40" cy="47" rx="1.5" ry="2" fill="#feb2b2"/>
  
  <!-- Mouth -->
  <path d="M 37 52 Q 40 54 43 52" stroke="#e53e3e" stroke-width="2" fill="none"/>
  
  <!-- Suit and tie -->
  <rect x="20" y="60" width="40" height="25" fill="#1a202c" rx="5"/>
  <rect x="24" y="62" width="32" height="20" fill="#2d3748" rx="3"/>
  <rect x="37" y="60" width="6" height="25" fill="#e53e3e"/>
  <polygon points="37,62 43,62 42,65 38,65" fill="#c53030"/>
</svg>
